<svg xmlns="http://www.w3.org/2000/svg" xmlns:xlink="http://www.w3.org/1999/xlink" width="500" zoomAndPan="magnify" viewBox="0 0 375 374.999991" height="500" preserveAspectRatio="xMidYMid meet" version="1.0"><defs><g/></defs><g fill="#ffc107" fill-opacity="1"><g transform="translate(79.995178, 206.000012)"><g><path d="M 105.9375 -14.234375 L 106.0625 -18.21875 C 106.132812 -20.71875 106.367188 -23.453125 106.765625 -26.421875 L 107.703125 -33.34375 C 107.890625 -34.976562 108.082031 -36.460938 108.28125 -37.796875 C 104.570312 -33.734375 101.582031 -30.566406 99.3125 -28.296875 L 92.578125 -21.734375 C 77.503906 -7.640625 68.519531 -0.59375 65.625 -0.59375 C 61.363281 -0.59375 56.890625 -1.507812 52.203125 -3.34375 C 49.671875 -4.351562 48.226562 -5.40625 47.875 -6.5 C 47.320312 -7.875 47.046875 -9.738281 47.046875 -12.09375 C 47.046875 -14.457031 47.125 -16.632812 47.28125 -18.625 C 47.4375 -20.625 47.628906 -22.609375 47.859375 -24.578125 C 48.097656 -26.554688 48.34375 -28.453125 48.59375 -30.265625 C 48.851562 -32.078125 49.0625 -33.671875 49.21875 -35.046875 C 49.613281 -38.128906 49.691406 -39.671875 49.453125 -39.671875 L 27.65625 -12.890625 C 17.382812 -0.816406 11.546875 5.863281 10.140625 7.15625 C 7.128906 9.882812 3.804688 11.25 0.171875 11.25 C -1.617188 11.25 -3.097656 10.800781 -4.265625 9.90625 C -5.441406 9.007812 -6.03125 7.894531 -6.03125 6.5625 C -6.03125 3.90625 -4.921875 1.128906 -2.703125 -1.765625 L 49.34375 -67.90625 L 55.4375 -75.234375 C 62.695312 -83.785156 67.460938 -88.0625 69.734375 -88.0625 C 72.890625 -88.0625 75.894531 -87.265625 78.75 -85.671875 C 81.289062 -84.265625 82.738281 -82.894531 83.09375 -81.5625 C 83.25 -81.050781 82.914062 -78.6875 82.09375 -74.46875 L 80.046875 -63.40625 C 77.734375 -51.0625 76.578125 -43.097656 76.578125 -39.515625 C 76.578125 -35.941406 76.988281 -34.15625 77.8125 -34.15625 C 80.46875 -34.15625 85.585938 -38.515625 93.171875 -47.234375 L 112.15625 -69.96875 C 116.332031 -74.769531 119.101562 -77.503906 120.46875 -78.171875 C 120.863281 -78.359375 121.429688 -78.453125 122.171875 -78.453125 C 122.910156 -78.453125 123.738281 -78.351562 124.65625 -78.15625 C 125.570312 -77.96875 126.507812 -77.71875 127.46875 -77.40625 C 128.425781 -77.09375 129.351562 -76.71875 130.25 -76.28125 C 131.15625 -75.851562 131.957031 -75.40625 132.65625 -74.9375 C 134.175781 -73.925781 134.925781 -73.097656 134.90625 -72.453125 C 134.894531 -71.804688 134.734375 -70.414062 134.421875 -68.28125 C 134.109375 -66.15625 133.71875 -63.570312 133.25 -60.53125 C 130 -40.332031 128.304688 -28.613281 128.171875 -25.375 C 128.035156 -22.132812 128.367188 -20.101562 129.171875 -19.28125 C 129.972656 -18.457031 131.15625 -18.046875 132.71875 -18.046875 C 135.570312 -18.046875 139.710938 -19.742188 145.140625 -23.140625 C 148.804688 -25.453125 151.84375 -26.609375 154.25 -26.609375 C 156.65625 -26.609375 157.859375 -25.453125 157.859375 -23.140625 C 157.859375 -20.765625 156.566406 -17.875 153.984375 -14.46875 C 150.273438 -9.550781 144.726562 -5.097656 137.34375 -1.109375 C 131.132812 2.210938 125.238281 3.875 119.65625 3.875 C 110.507812 3.875 105.9375 -2.160156 105.9375 -14.234375 Z M 105.9375 -14.234375 "/></g></g></g><g fill="#ffc107" fill-opacity="1"><g transform="translate(243.26314, 206.000012)"><g><path d="M 35.75 -15.703125 C 36.53125 -14.648438 36.921875 -13.210938 36.921875 -11.390625 C 36.921875 -9.578125 36.351562 -7.859375 35.21875 -6.234375 C 34.082031 -4.617188 32.617188 -3.242188 30.828125 -2.109375 C 27.148438 0.273438 22.988281 1.46875 18.34375 1.46875 C 13.851562 1.46875 10.671875 0.3125 8.796875 -2 C 7.773438 -3.28125 7.265625 -4.800781 7.265625 -6.5625 C 7.265625 -10.039062 9.039062 -13.125 12.59375 -15.8125 C 16.15625 -18.507812 20.40625 -19.859375 25.34375 -19.859375 C 30.28125 -19.859375 33.75 -18.472656 35.75 -15.703125 Z M 35.75 -15.703125 "/></g></g></g></svg>